<svg width="62" height="62" viewBox="0 0 62 62" fill="none" xmlns="http://www.w3.org/2000/svg">
<path d="M41.8176 48.7769C39.7019 48.7743 37.6735 47.9327 36.1774 46.4366C34.6813 44.9406 33.8397 42.9122 33.8371 40.7964H37.0293C37.0293 41.7434 37.3102 42.6692 37.8363 43.4566C38.3625 44.244 39.1103 44.8578 39.9852 45.2202C40.8602 45.5826 41.823 45.6774 42.7518 45.4927C43.6806 45.3079 44.5338 44.8519 45.2035 44.1822C45.8731 43.5126 46.3292 42.6594 46.5139 41.7305C46.6987 40.8017 46.6039 39.8389 46.2415 38.964C45.879 38.089 45.2653 37.3412 44.4779 36.815C43.6904 36.2889 42.7647 36.0081 41.8176 36.0081H40.2215V32.8159H41.8176C43.9342 32.8159 45.9641 33.6567 47.4607 35.1533C48.9573 36.6499 49.7982 38.6798 49.7982 40.7964C49.7982 42.9129 48.9573 44.9428 47.4607 46.4394C45.9641 47.9361 43.9342 48.7769 41.8176 48.7769V48.7769ZM30.6449 32.8159H37.0293V36.0081H30.6449V32.8159ZM21.0683 32.8159H27.4527V36.0081H21.0683V32.8159ZM11.4917 32.8159H17.8761V36.0081H11.4917V32.8159ZM38.6254 28.0276H37.0293V24.8353H38.6254C39.5725 24.8353 40.4982 24.5545 41.2857 24.0284C42.0731 23.5022 42.6868 22.7544 43.0493 21.8794C43.4117 21.0045 43.5065 20.0417 43.3217 19.1129C43.137 18.1841 42.6809 17.3309 42.0113 16.6612C41.3416 15.9915 40.4884 15.5355 39.5596 15.3507C38.6307 15.166 37.668 15.2608 36.793 15.6232C35.9181 15.9856 35.1702 16.5994 34.6441 17.3868C34.118 18.1742 33.8371 19.1 33.8371 20.047H30.6449C30.6449 18.4686 31.113 16.9257 31.9899 15.6133C32.8668 14.3009 34.1132 13.278 35.5714 12.674C37.0297 12.07 38.6343 11.9119 40.1824 12.2199C41.7304 12.5278 43.1524 13.2879 44.2685 14.404C45.3846 15.5201 46.1447 16.9421 46.4526 18.4901C46.7605 20.0382 46.6025 21.6428 45.9985 23.1011C45.3944 24.5593 44.3716 25.8057 43.0592 26.6826C41.7468 27.5595 40.2038 28.0276 38.6254 28.0276V28.0276ZM27.4527 24.8353H33.8371V28.0276H27.4527V24.8353ZM17.8761 24.8353H24.2605V28.0276H17.8761V24.8353Z" stroke-width="4"/>
<circle cx="30.6452" cy="30.6452" r="29.1452"  stroke-width="5"/>
</svg>
