<svg width="44" height="44" viewBox="0 0 44 44" fill="none" xmlns="http://www.w3.org/2000/svg">
<path d="M22 42C33.046 42 42 33.046 42 22C42 10.954 33.046 2 22 2C10.954 2 2 10.954 2 22C2 33.046 10.954 42 22 42Z" stroke="white" stroke-width="3" stroke-linecap="round" stroke-linejoin="round"/>
<path d="M2 22H42" stroke="white" stroke-width="3" stroke-linecap="round" stroke-linejoin="round"/>
<path d="M22 42C26.418 42 30 33.046 30 22C30 10.954 26.418 2 22 2C17.582 2 14 10.954 14 22C14 33.046 17.582 42 22 42Z" stroke="white" stroke-width="3" stroke-linecap="round" stroke-linejoin="round"/>
<path d="M36.142 35.858C34.287 33.9981 32.0826 32.523 29.6556 31.5177C27.2287 30.5124 24.627 29.9966 22 30C19.3731 29.9966 16.7714 30.5124 14.3444 31.5177C11.9175 32.523 9.71311 33.9981 7.85803 35.858M7.85803 8.14203C9.71311 10.002 11.9175 11.477 14.3444 12.4823C16.7714 13.4877 19.3731 14.0034 22 14V14C24.627 14.0034 27.2287 13.4877 29.6556 12.4823C32.0826 11.477 34.287 10.002 36.142 8.14203H7.85803Z" stroke="white" stroke-width="3" stroke-linecap="round" stroke-linejoin="round"/>
</svg>
