<svg width="61" height="43" viewBox="0 0 61 43" fill="none" xmlns="http://www.w3.org/2000/svg">
<path d="M41.2931 18.6464C41.2931 19.1442 41.0954 19.6216 40.7434 19.9736C40.3914 20.3256 39.914 20.5234 39.4162 20.5234H20.6466C20.1488 20.5234 19.6714 20.3256 19.3194 19.9736C18.9674 19.6216 18.7696 19.1442 18.7696 18.6464C18.7696 18.1486 18.9674 17.6712 19.3194 17.3192C19.6714 16.9672 20.1488 16.7695 20.6466 16.7695H39.4162C39.914 16.7695 40.3914 16.9672 40.7434 17.3192C41.0954 17.6712 41.2931 18.1486 41.2931 18.6464ZM39.4162 24.2773H20.6466C20.1488 24.2773 19.6714 24.4751 19.3194 24.8271C18.9674 25.1791 18.7696 25.6565 18.7696 26.1543C18.7696 26.6521 18.9674 27.1295 19.3194 27.4815C19.6714 27.8335 20.1488 28.0312 20.6466 28.0312H39.4162C39.914 28.0312 40.3914 27.8335 40.7434 27.4815C41.0954 27.1295 41.2931 26.6521 41.2931 26.1543C41.2931 25.6565 41.0954 25.1791 40.7434 24.8271C40.3914 24.4751 39.914 24.2773 39.4162 24.2773ZM60.0627 16.7695V22.4004C60.0566 24.3897 59.2636 26.2957 57.8569 27.7024C56.4503 29.109 54.5442 29.902 52.5549 29.9082H51.3349C49.7864 33.2867 46.8067 36.2429 42.5132 38.6361C37.5627 41.3811 32.2837 42.6246 30.8056 42.9296L30.0314 43L29.2571 42.9296C27.779 42.6246 22.5001 41.3811 17.5496 38.6361C13.256 36.2429 10.2764 33.2867 8.72787 29.9082H7.50784C5.51854 29.902 3.61249 29.109 2.20583 27.7024C0.799177 26.2957 0.0061876 24.3897 0 22.4004V16.7695C0.0061876 14.7802 0.799177 12.8741 2.20583 11.4675C3.61249 10.0608 5.51854 9.26782 7.50784 9.26163H7.74246C7.93304 8.75508 8.2309 8.29573 8.61561 7.91506C9.00033 7.53439 9.46281 7.24141 9.97135 7.0562L28.741 0.228759C29.5742 -0.0762532 30.4885 -0.0762532 31.3218 0.228759L50.0914 7.0562C50.5999 7.24141 51.0624 7.53439 51.4471 7.91506C51.8318 8.29573 52.1297 8.75508 52.3203 9.26163H52.5549C54.5442 9.26782 56.4503 10.0608 57.8569 11.4675C59.2636 12.8741 60.0566 14.7802 60.0627 16.7695ZM7.64861 26.1543C7.55425 25.5331 7.50719 24.9056 7.50784 24.2773V13.0156C6.51224 13.0156 5.55742 13.4111 4.85342 14.1151C4.14942 14.8191 3.75392 15.7739 3.75392 16.7695V22.4004C3.75392 23.396 4.14942 24.3508 4.85342 25.0548C5.55742 25.7588 6.51224 26.1543 7.50784 26.1543H7.64861ZM48.801 24.2773V10.5755L30.0314 3.74806L11.2618 10.5755V24.2773C11.2618 35.0229 28.1075 38.8472 30.0314 39.2461C31.9553 38.8472 48.801 35.0229 48.801 24.2773ZM56.3088 16.7695C56.3088 15.7739 55.9133 14.8191 55.2093 14.1151C54.5053 13.4111 53.5505 13.0156 52.5549 13.0156V24.2773C52.5556 24.9056 52.5085 25.5331 52.4141 26.1543H52.5549C53.5505 26.1543 54.5053 25.7588 55.2093 25.0548C55.9133 24.3508 56.3088 23.396 56.3088 22.4004V16.7695Z" />
</svg>
