<svg width="57" height="60" viewBox="0 0 57 60" fill="none" xmlns="http://www.w3.org/2000/svg">
<path d="M31.1719 25.3125C31.1719 30 28.5 36.5625 28.5 36.5625L31.1719 25.3125ZM29.3906 27.1875C29.3906 27.1875 32.0625 19.6875 25.8281 14.0625C19.5938 8.43751 9.79688 10.3125 9.79688 10.3125C9.79688 10.3125 9.79688 17.8125 15.1406 23.4375C20.4844 29.0625 29.3906 27.1875 29.3906 27.1875ZM31.1719 23.4375C31.1719 23.4375 28.5 15.9375 34.7344 10.3125C40.9688 4.68751 50.7656 6.56251 50.7656 6.56251C50.7656 6.56251 50.7656 14.0625 45.4219 19.6875C40.0781 25.3125 31.1719 23.4375 31.1719 23.4375ZM16.9219 36.5625H40.0781C40.0781 36.5625 41.8594 53.4375 28.5 53.4375C15.1406 53.4375 16.9219 36.5625 16.9219 36.5625Z" stroke="#026D00" stroke-width="3.75" stroke-linecap="round" stroke-linejoin="round"/>
</svg>
